<svg width="512" height="512" viewBox="0 0 512 512" fill="none" xmlns="http://www.w3.org/2000/svg">
<path d="M147.607 297.278L193.371 237.183L209.551 255.212" stroke="#47B236" stroke-width="12" stroke-linejoin="round"/>
<path d="M187.869 274.683C185.864 277.321 186.376 281.085 189.014 283.09C191.652 285.096 195.416 284.583 197.422 281.945L187.869 274.683ZM250.674 201.988L255.437 198.338C254.299 196.853 252.534 195.984 250.663 195.988C248.792 195.991 247.03 196.867 245.898 198.356L250.674 201.988ZM192.645 278.314L197.422 281.945L255.451 205.619L250.674 201.988L245.898 198.356L187.869 274.683L192.645 278.314ZM250.674 201.988L245.912 205.637L282.768 253.733L287.53 250.084L292.293 246.434L255.437 198.338L250.674 201.988Z" fill="#47B236"/>
<path d="M262.383 271.701C260.37 274.334 260.872 278.099 263.505 280.112C266.137 282.125 269.903 281.623 271.916 278.991L262.383 271.701ZM304.184 226.92L308.963 223.292C307.831 221.801 306.067 220.923 304.194 220.92C302.322 220.917 300.555 221.788 299.418 223.275L304.184 226.92ZM267.149 275.346L271.916 278.991L308.95 230.565L304.184 226.92L299.418 223.275L262.383 271.701L267.149 275.346ZM304.184 226.92L299.405 230.548L357.489 307.063L362.268 303.435L367.047 299.808L308.963 223.292L304.184 226.92Z" fill="#47B236"/>
<circle cx="256" cy="256" r="154.193" stroke="white" stroke-width="10"/>
<circle cx="255.225" cy="255.225" r="117.196" stroke="white" stroke-width="10"/>
<path d="M299.449 171.595C295.868 173.983 293.508 178.059 293.508 182.687C293.508 190.045 299.473 196.01 306.831 196.01C311.459 196.01 315.535 193.649 317.923 190.068C316.348 196.896 310.231 201.987 302.924 201.987C294.423 201.987 287.531 195.096 287.53 186.595C287.53 179.288 292.621 173.17 299.449 171.595Z" fill="white"/>
</svg>
